<?xml version="1.0" encoding="UTF-8" standalone="no"?>
<!-- Created with Inkscape (http://www.inkscape.org/) -->

<svg
   xmlns:dc="http://purl.org/dc/elements/1.1/"
   xmlns:cc="http://creativecommons.org/ns#"
   xmlns:rdf="http://www.w3.org/1999/02/22-rdf-syntax-ns#"
   xmlns:svg="http://www.w3.org/2000/svg"
   xmlns="http://www.w3.org/2000/svg"
   xmlns:sodipodi="http://sodipodi.sourceforge.net/DTD/sodipodi-0.dtd"
   xmlns:inkscape="http://www.inkscape.org/namespaces/inkscape"
   width="210mm"
   height="297mm"
   viewBox="0 0 210 297"
   version="1.1"
   id="svg8"
   inkscape:version="0.92.3 (2405546, 2018-03-11)"
   sodipodi:docname="logo.svg">
  <defs
     id="defs2">
    <inkscape:perspective
       id="perspective10"
       inkscape:persp3d-origin="372.04724 : 350.78739 : 1"
       inkscape:vp_z="744.09448 : 526.18109 : 1"
       inkscape:vp_y="0 : 1000 : 0"
       inkscape:vp_x="0 : 526.18109 : 1"
       sodipodi:type="inkscape:persp3d" />
  </defs>
  <sodipodi:namedview
     id="base"
     pagecolor="#ffffff"
     bordercolor="#666666"
     borderopacity="1.0"
     inkscape:pageopacity="0.0"
     inkscape:pageshadow="2"
     inkscape:zoom="0.98994949"
     inkscape:cx="140.15045"
     inkscape:cy="502.79938"
     inkscape:document-units="mm"
     inkscape:current-layer="layer1"
     showgrid="false"
     inkscape:window-width="2560"
     inkscape:window-height="1422"
     inkscape:window-x="0"
     inkscape:window-y="18"
     inkscape:window-maximized="1" />
  <metadata
     id="metadata5">
    <rdf:RDF>
      <cc:Work
         rdf:about="">
        <dc:format>image/svg+xml</dc:format>
        <dc:type
           rdf:resource="http://purl.org/dc/dcmitype/StillImage" />
        <dc:title></dc:title>
      </cc:Work>
    </rdf:RDF>
  </metadata>
  <g
     inkscape:label="Ebene 1"
     inkscape:groupmode="layer"
     id="layer1">
    <path
       style="opacity:1;fill:none;fill-opacity:1;stroke:#ff0000;stroke-width:1.32291663;stroke-linecap:round;stroke-miterlimit:4;stroke-dasharray:none;stroke-dashoffset:0;stroke-opacity:1"
       id="path815"
       sodipodi:type="arc"
       sodipodi:cx="109.04597"
       sodipodi:cy="81.981667"
       sodipodi:rx="64.411957"
       sodipodi:ry="21.247927"
       sodipodi:start="4.2379736"
       sodipodi:end="4.2286186"
       sodipodi:open="true"
       d="m 79.621395,63.080362 a 64.411957,21.247927 0 0 1 86.653895,9.15068 64.411957,21.247927 0 0 1 -27.53706,28.606318 64.411957,21.247927 0 0 1 -86.7827,-9.016872 64.411957,21.247927 0 0 1 27.131135,-28.648496" />
    <path
       style="opacity:1;fill:none;fill-opacity:1;stroke:#ff0000;stroke-width:1.52325392;stroke-linecap:round;stroke-miterlimit:4;stroke-dasharray:none;stroke-dashoffset:0;stroke-opacity:1"
       id="path817"
       sodipodi:type="arc"
       sodipodi:cx="106.73801"
       sodipodi:cy="219.22456"
       sodipodi:rx="48.545574"
       sodipodi:ry="17.105249"
       sodipodi:start="4.2379736"
       sodipodi:end="4.2286186"
       sodipodi:open="true"
       d="M 84.561492,204.00842 A 48.545574,17.105249 0 0 1 149.87022,211.375 48.545574,17.105249 0 0 1 129.11627,234.40399 48.545574,17.105249 0 0 1 63.710466,227.14512 48.545574,17.105249 0 0 1 84.15848,204.08218" />
    <path
       style="fill:none;fill-rule:evenodd;stroke:#ff0000;stroke-width:1.2;stroke-linecap:butt;stroke-linejoin:miter;stroke-opacity:1;stroke-miterlimit:4;stroke-dasharray:none"
       d="M 57.997486,219.7591 46.772168,87.727958"
       id="path819"
       inkscape:connector-curvature="0" />
    <path
       style="fill:#ff0000;fill-rule:evenodd;stroke:#ff0000;stroke-width:1.2;stroke-linecap:butt;stroke-linejoin:miter;stroke-opacity:1;fill-opacity:1;stroke-miterlimit:4;stroke-dasharray:none"
       d="M 155.55086,220.02637 172.12157,87.460689"
       id="path821"
       inkscape:connector-curvature="0" />
    <path
       style="opacity:1;fill:#ffff00;fill-opacity:1;stroke:#ff0000;stroke-width:1.20000005;stroke-linecap:round;stroke-miterlimit:4;stroke-dasharray:none;stroke-dashoffset:0;stroke-opacity:1"
       id="path842"
       sodipodi:type="arc"
       sodipodi:cx="63.075607"
       sodipodi:cy="66.480026"
       sodipodi:rx="23.252449"
       sodipodi:ry="22.584274"
       sodipodi:start="4.2379736"
       sodipodi:end="4.2286186"
       sodipodi:open="true"
       d="M 52.453459,46.389961 A 23.252449,22.584274 0 0 1 83.735155,56.116155 23.252449,22.584274 0 0 1 73.79439,86.521615 23.252449,22.584274 0 0 1 42.466196,76.937642 23.252449,22.584274 0 0 1 52.260424,46.487353" />
    <g
       id="layer1-1"
       inkscape:label="Layer 1"
       transform="matrix(4.7352736,0,0,4.9539487,114.53977,28.542531)">
      <path
         id="path2385"
         d="M 0,0 5,11 H 6 L 11,0 Z m 2.5,1 h 7 L 6,9 Z"
         style="display:inline;overflow:visible;visibility:visible;opacity:1;fill:#000000;fill-opacity:1;fill-rule:evenodd;stroke:none;stroke-width:2;stroke-linecap:butt;stroke-linejoin:miter;stroke-miterlimit:4;stroke-dasharray:none;stroke-dashoffset:0;stroke-opacity:1;marker:none;marker-start:none;marker-mid:none;marker-end:none;enable-background:accumulate"
         inkscape:connector-curvature="0" />
    </g>
    <path
       id="path603"
       style="font-size:12px;stroke-width:0.21136962"
       d="m 120.12593,151.94726 -1.02177,3.0174 21.17069,59.7344 -54.760098,29.8576 -1.136895,2.73461 74.737713,27.19702 c 4.01399,-8.62085 9.41287,-17.07441 14.36721,-25.20621 l -2.20879,-1.47966 c -4.07333,4.07328 -7.61937,8.72863 -13.64589,10.20558 -6.60699,1.61913 -13.41653,-1.41087 -19.53919,-3.67357 l -34.34701,-12.69331 50.06161,-27.7856 -17.5244,-49.66697 18.40304,6.72098 c 11.78081,4.35374 29.55228,7.80729 29.17478,23.16509 -0.0645,2.62527 -0.40666,5.24989 -1.11047,7.77137 l 2.62654,0.97066 6.67959,-24.28806 -71.92668,-26.5813 z"
       inkscape:connector-curvature="0" />
    <g
       style="overflow:visible"
       id="g946"
       transform="matrix(0.21330819,-0.15653739,0.15653739,0.21330819,-22.25462,166.67189)">
      <path
         id="path926"
         d="m 186.1489,98.7495 -2.3828,8.5 h -19.5313 l -15.6953,58.6802 c -7.2344,25.2188 -14.1328,44.7734 -20.7109,58.6563 -9.3359,19.5938 -19.3828,33.125 -30.1328,40.5938 -8.1719,5.7109 -16.3516,8.5703 -24.5313,8.5703 -5.3281,0 -9.8672,-1.6016 -13.6016,-4.7969 -2.75,-2.2266 -4.1328,-5.1172 -4.1328,-8.6719 0,-2.8438 1.125,-5.3125 3.3516,-7.3984 2.2422,-2.0938 4.9844,-3.1328 8.2266,-3.1328 2.375,0 4.3672,0.75 5.9844,2.2656 1.6328,1.5 2.4375,3.2344 2.4375,5.1875 0,1.9531 -0.8516,3.7656 -2.5547,5.4531 -1.2969,1.2422 -1.9453,2.1719 -1.9453,2.7969 0,0.7969 0.3125,1.4219 0.9219,1.8672 0.7891,0.6172 2.0156,0.9297 3.6719,0.9297 3.7656,0 7.7188,-1.1953 11.8672,-3.5703 4.1641,-2.3828 7.8594,-5.9297 11.0859,-10.6406 3.2422,-4.7266 6.2969,-11.5313 9.1875,-20.4297 1.2969,-3.6797 4.7734,-15.8047 10.4375,-36.3672 l 25.1875,-89.9927 H 117.813 l 1.8906,-8.5 c 8.1172,0 13.7891,-0.5 17.0234,-1.5156 3.2266,-1.0156 6.1875,-2.9531 8.875,-5.8203 2.6875,-2.8594 5.8906,-8.2109 9.6094,-16.0547 4.9844,-10.5703 9.75,-18.7656 14.3125,-24.5859 6.2422,-7.8359 12.8047,-13.7188 19.6875,-17.6406 6.8828,-3.9218 13.3672,-5.8828 19.4453,-5.8828 6.4141,0 11.5625,1.6953 15.4453,5.0703 3.8828,3.3828 5.8281,7.0469 5.8281,11 0,3.0781 -1.0156,5.6641 -3.0313,7.7734 -2.0157,2.1093 -4.6016,3.1563 -7.7578,3.1563 -2.7188,0 -4.9375,-0.7891 -6.6484,-2.375 -1.7109,-1.5781 -2.5625,-3.4688 -2.5625,-5.6719 0,-1.4063 0.5781,-3.1406 1.75,-5.2109 1.1641,-2.0625 1.75,-3.4531 1.75,-4.1563 0,-1.2266 -0.3672,-2.1484 -1.0859,-2.7656 -1.0469,-0.875 -2.5781,-1.3203 -4.5938,-1.3203 -5.0781,0 -9.625,1.8281 -13.6563,5.4766 -5.3984,4.8438 -10.2266,12.4141 -14.4922,22.7266 -2.1797,5.3906 -6.4688,17.9844 -12.8672,37.7969 h 19.4142 z"
         inkscape:connector-curvature="0" />
      <path
         id="path928"
         d="m 329.7905,267.75 v 5 c -13.4063,-6.6875 -24.5938,-14.5234 -33.5547,-23.4922 -12.7813,-12.7656 -22.6406,-27.8125 -29.5625,-45.1406 -6.9219,-17.3281 -10.3828,-35.3281 -10.3828,-53.9849 0,-27.2734 6.7891,-52.1563 20.3672,-74.6406 13.5781,-22.4843 31.2891,-38.5625 53.1328,-48.2422 v 5 c -10.9688,6 -19.9688,14.1953 -27.0078,24.5938 -7.0469,10.4063 -12.3047,23.5859 -15.7813,39.5391 -3.4766,15.9532 -5.2109,32.6172 -5.2109,49.9844 0,18.8677 1.4688,36.0161 4.4141,51.438 2.3125,12.1641 5.125,21.9219 8.4219,29.2891 3.2969,7.3516 7.7266,14.4297 13.2969,21.2188 5.5703,6.7811 12.8593,13.2654 21.8671,19.4373 z"
         inkscape:connector-curvature="0" />
      <path
         id="path930"
         d="m 396.0464,95.7495 c 4.2891,4.5469 7.5313,9.0859 9.7266,13.625 1.5625,3.2344 4.1406,11.7344 7.7188,25.4844 l 11.5313,-17.6172 c 3.0547,-4.2656 6.7656,-8.3359 11.1328,-12.2109 4.3672,-3.875 8.2109,-6.5234 11.5391,-7.9453 2.0938,-0.8906 4.4063,-1.3359 6.9375,-1.3359 3.7578,0 6.75,1.0391 8.9766,3.1016 2.2266,2.0625 3.3438,4.5781 3.3438,7.5313 0,3.4141 -0.6563,5.75 -1.9609,7 -2.4375,2.25 -5.2188,3.3672 -8.3516,3.3672 -1.8281,0 -3.7813,-0.4141 -5.8672,-1.2578 -4.0938,-1.4922 -6.8359,-2.2422 -8.2266,-2.2422 -2.0938,0 -4.5703,1.2422 -7.4375,3.7188 -5.3906,4.6016 -11.8281,13.4922 -19.3125,26.6641 l 10.7734,45.0396 c 1.625,6.9219 2.9922,11.0625 4.1016,12.4219 1.1094,1.3594 2.2188,2.0391 3.3281,2.0391 1.7969,0 3.8906,-1.0078 6.2813,-3.0234 4.6953,-4.0313 8.7109,-9.2969 12.0469,-15.7969 l 4.625,2.375 c -5.4688,10.3516 -12.4063,18.9453 -20.8203,25.7813 -4.7734,3.8516 -8.8047,5.7813 -12.1016,5.7813 -4.8594,0 -8.7188,-2.7188 -11.5781,-8.1484 -1.8281,-3.4219 -5.5938,-18.1563 -11.3125,-44.2188 -13.7969,23.7188 -24.8516,38.9844 -33.1641,45.8047 -5.3984,4.375 -10.6172,6.5625 -15.6563,6.5625 -3.5391,0 -6.7578,-1.2656 -9.6797,-3.7813 -2.125,-1.9063 -3.1875,-4.4688 -3.1875,-7.6875 0,-2.8594 0.9688,-5.25 2.9063,-7.1641 1.9375,-1.9063 4.3203,-2.8672 7.1328,-2.8672 2.8125,0 5.8125,1.4609 8.9844,4.3672 2.2891,2.0938 4.0547,3.1328 5.2891,3.1328 1.0547,0 2.4219,-0.6953 4.0938,-2.1016 4.1406,-3.3281 9.7734,-10.5234 16.9063,-21.5703 7.1329,-11.0469 11.8047,-19.0234 14.0078,-23.9375 -5.4453,-21.7036 -8.3828,-33.188 -8.8203,-34.4458 -2.0078,-5.8047 -4.625,-9.9141 -7.8438,-12.3281 -3.2188,-2.4063 -7.9688,-3.6172 -14.2344,-3.6172 -2,0 -4.3125,0.0938 -6.9219,0.2656 v -4.7656 z"
         inkscape:connector-curvature="0" />
      <path
         id="path932"
         d="m 488.1147,32.2495 v -5 c 13.4922,6.6016 24.7188,14.3906 33.6875,23.3594 12.6875,12.8516 22.5,27.9219 29.4219,45.2109 6.9219,17.2969 10.3906,35.3125 10.3906,54.0469 0,27.2817 -6.7734,52.1567 -20.3047,74.6411 -13.5391,22.4844 -31.2734,38.5625 -53.1953,48.2422 v -5 c 10.9609,-6.0859 19.9844,-14.3047 27.0703,-24.6563 7.0859,-10.3672 12.3438,-23.5391 15.7813,-39.5391 3.4297,-16 5.1484,-32.6797 5.1484,-50.0469 0,-18.7817 -1.4766,-35.9224 -4.4141,-51.438 -2.2344,-12.1641 -5.0156,-21.9063 -8.3594,-29.2266 -3.3438,-7.3125 -7.7734,-14.3672 -13.2969,-21.1563 -5.5311,-6.781 -12.8358,-13.2654 -21.9296,-19.4373 z"
         inkscape:connector-curvature="0" />
    </g>
    <path
       style="opacity:1;fill:#ff3b00;fill-opacity:1;stroke:#ff0000;stroke-width:4.58147955;stroke-linecap:round;stroke-miterlimit:4;stroke-dasharray:none;stroke-dashoffset:0;stroke-opacity:1"
       d="m 220.33273,810.43395 c -0.81397,-3.85301 -18.93934,-220.89348 -18.58691,-222.56707 0.19111,-0.90754 2.48805,1.71501 5.52788,6.31152 25.64375,38.77567 69.11976,63.11268 112.26515,62.84381 11.71314,-0.073 21.86074,-1.03051 23.00053,-2.1703 0.32433,-0.32432 0.034,-1.4794 -0.64507,-2.56684 -1.07246,-1.71728 -2.7746,-2.05231 -12.94944,-2.54881 -26.59172,-1.29759 -45.60487,-10.91325 -70.33644,-35.57179 -32.08269,-31.98796 -57.86675,-75.22483 -63.16041,-105.91266 -0.68211,-3.95427 -0.99939,-11.95985 -0.74064,-18.68782 0.37411,-9.72779 0.98074,-13.28363 3.49606,-20.49261 2.92573,-8.38526 2.97572,-8.81223 1.29284,-11.04327 l -1.75056,-2.32078 -3.05336,5.99251 c -1.90438,3.73752 -3.24138,5.42233 -3.553,4.47728 -0.40626,-1.23203 -10.91011,-124.08246 -10.81346,-126.4715 0.0157,-0.38912 3.32424,1.78981 7.35223,4.84208 9.68157,7.33638 32.30679,18.38891 49.24493,24.0564 39.73489,13.29526 87.50041,21.17098 143.78357,23.70746 l 19.02973,0.85761 7.56838,7.46209 c 34.13387,33.65446 60.46511,77.31248 66.08174,109.56555 1.99731,11.46941 0.75819,27.58183 -2.94606,38.30774 -3.10083,8.9787 -3.11561,9.11555 -1.19218,11.04229 1.92385,1.92718 1.9968,1.84729 5.99517,-6.56599 15.50573,-32.62682 14.35447,-73.94013 -3.08639,-110.75628 -6.15105,-12.98433 -17.39209,-28.91281 -28.1374,-39.87053 l -9.72581,-9.91806 h 7.3012 c 10.57133,0 42.83965,-2.71664 60.9769,-5.13359 63.79994,-8.50192 113.27302,-25.02085 138.15963,-46.13112 3.4724,-2.94549 6.2923,-4.77561 6.26645,-4.06694 -0.0259,0.70867 -8.32172,67.22478 -18.43528,147.81356 l -18.38828,146.52508 -77.27667,-28.57785 c -42.50217,-15.71781 -77.77291,-28.5832 -78.37942,-28.58976 -0.60652,-0.006 -1.91511,2.6711 -2.90799,5.95035 l -1.80522,5.96225 33.29582,93.79031 c 18.3127,51.58466 33.24198,93.88243 33.17618,93.99503 -0.0658,0.1126 -3.51253,-0.66185 -7.65941,-1.72101 -33.74455,-8.61873 -84.24259,-13.00392 -127.16869,-11.04318 -52.56198,2.40089 -95.17327,11.10339 -126.16811,25.76732 -13.52231,6.3975 -22.18232,12.34611 -29.2811,20.11331 -4.77812,5.22802 -5.2147,5.48565 -5.66709,3.34421 z M 329.66566,597.63326 c 3.84762,-2.73974 7.89201,-10.84086 9.39774,-18.82413 1.15887,-6.14429 0.57447,-42.2451 -0.78412,-48.43731 l -0.65392,-2.98045 3.51129,2.98045 c 19.04904,16.16918 28.63541,23.90614 31.39657,25.33955 4.14809,2.1534 10.96898,2.20359 14.17292,0.10429 3.05212,-1.99983 6.14182,-8.44476 7.86335,-16.40248 1.33954,-6.19201 1.84811,-28.22548 0.67849,-29.39511 -0.35587,-0.35586 -1.80463,-0.35649 -3.21946,-0.001 -2.51843,0.63209 -2.57242,0.83672 -2.57242,9.75021 0,13.37002 -2.87189,18.89822 -8.48821,16.33925 -2.81079,-1.2807 -43.18653,-35.23319 -44.41013,-37.34509 -0.48152,-0.83108 -0.93609,-8.16153 -1.01015,-16.28988 -0.11779,-12.92694 0.11848,-15.28515 1.88563,-18.81944 1.76694,-3.53387 2.84375,-4.32802 8.5863,-6.33236 11.23901,-3.9228 14.74397,-10.17544 9.81501,-17.50938 -2.57838,-3.83645 -7.68615,-5.70093 -12.38614,-4.52131 -5.13632,1.28914 -10.13442,7.47837 -12.7401,15.77624 -2.08769,6.64836 -2.36644,9.5291 -2.36644,24.45611 0,9.30603 -0.11508,16.92005 -0.25572,16.92005 -0.14065,0 -4.00448,-2.96706 -8.5863,-6.59346 -9.20241,-7.28349 -14.28671,-10.06649 -22.22616,-12.16594 l -5.29731,-1.40115 -11.87964,11.84238 c -6.5338,6.51331 -12.14898,12.69103 -12.47819,13.72826 -0.33845,1.06637 0.0731,2.55754 0.94707,3.43151 1.3874,1.3874 1.94093,1.23492 5.40712,-1.48947 9.39984,-7.38815 16.26701,-8.40918 24.53955,-3.64861 2.73544,1.57415 10.84415,7.71833 18.01939,13.65371 9.73633,8.05396 13.19175,11.52103 13.62093,13.66692 1.35579,6.77899 2.95727,33.62748 2.51275,42.1259 -0.65562,12.5341 -1.39181,13.7227 -8.49951,13.7227 -9.38781,0 -14.5118,3.79603 -14.5118,10.75081 0,3.26723 2.74788,7.96605 5.47522,9.36248 3.24113,1.65951 11.0375,0.6972 14.53639,-1.79424 z"
       id="path948"
       inkscape:connector-curvature="0"
       transform="scale(0.26458333)" />
    <path
       style="opacity:1;fill:#ff2a00;fill-opacity:1;stroke:#ff0000;stroke-width:4.58147955;stroke-linecap:round;stroke-miterlimit:4;stroke-dasharray:none;stroke-dashoffset:0;stroke-opacity:1"
       d="m 584.13396,811.10084 c -2.58425,-4.00346 -68.77703,-189.36023 -67.62246,-189.36023 0.27104,0 17.81953,6.30785 38.99665,14.01745 21.17711,7.70959 41.55457,15.01389 45.28325,16.23178 6.40408,2.09174 6.75258,2.36428 6.29489,4.92291 -0.26649,1.48972 -4.80334,37.48308 -10.08189,79.98525 -5.27856,42.50217 -9.70225,77.56348 -9.83043,77.914 -0.12818,0.35053 -1.49618,-1.31949 -3.04001,-3.71116 z"
       id="path950"
       inkscape:connector-curvature="0"
       transform="scale(0.26458333)" />
    <path
       style="opacity:1;fill:#ff3b00;fill-opacity:1;stroke:#ff0000;stroke-width:4.58147955;stroke-linecap:round;stroke-miterlimit:4;stroke-dasharray:none;stroke-dashoffset:0;stroke-opacity:1"
       d="m 370.2632,888.77485 c -1.94455,-0.18308 -9.18971,-0.82231 -16.10037,-1.42052 -27.06256,-2.34265 -63.24831,-9.98002 -82.48531,-17.40935 -50.71549,-19.58634 -62.28987,-45.07452 -30.58091,-67.34286 22.67159,-15.92163 61.9038,-27.39446 113.00415,-33.04625 22.01529,-2.43492 76.10959,-2.44784 97.98479,-0.0234 20.71297,2.29564 43.49677,6.14802 56.51233,9.55534 l 10.55038,2.76197 5.22438,14.64721 c 5.18784,14.54479 5.20942,14.65536 3.08667,15.812 -1.17573,0.64063 -33.46327,18.25516 -71.7501,39.14341 l -69.6124,37.97863 -6.14904,-0.16167 c -3.38197,-0.0889 -7.74003,-0.31145 -9.68457,-0.49452 z"
       id="path952"
       inkscape:connector-curvature="0"
       transform="scale(0.26458333)" />
    <path
       style="opacity:1;fill:#ff2c00;fill-opacity:1;stroke:#ff0000;stroke-width:4.58147955;stroke-linecap:round;stroke-miterlimit:4;stroke-dasharray:none;stroke-dashoffset:0;stroke-opacity:1"
       d="m 440.97388,886.91451 c 1.38896,-0.78402 32.29962,-17.9945 68.69037,-38.24551 52.65468,-29.30168 66.45564,-36.58257 67.58844,-35.65717 2.55859,2.09018 6.13273,11.16101 6.14283,15.58996 0.0508,22.27802 -38.11314,43.49669 -97.46985,54.19198 -14.25717,2.56895 -38.83875,5.65802 -44.44672,5.58545 l -3.03045,-0.0392 2.52538,-1.42549 z"
       id="path954"
       inkscape:connector-curvature="0"
       transform="scale(0.26458333)" />
  </g>
</svg>
